#!OML:ASF E:\inclinewalkrobotboard\Project 1\Capture day 1\Session 1\subject1.ASF
:FULLY-SPECIFIED
:DEGREES
1578
root 8.30052 16.531 -8.73857 2.37281 1.68836 4.57889
lowerback 0.925343 1.39479 -4.14435
upperback 4.78237 2.01969 -2.32682
thorax 4.3655 0.897161 -0.0289314
lowerneck -5.94558 3.05825 -1.69856
upperneck 36.7657 4.56047 1.35344
head 13.2558 1.97983 1.41457
rclavicle 1.36167e-014 -3.18055e-015
rhumerus -39.4746 -8.08135 -77.7572
rradius 50.533
rwrist 0.134594
rhand -13.7705 -40.0706
rfingers 7.12502
rthumb 12.3504 -429.686
lclavicle 1.36167e-014 -3.18055e-015
lhumerus -42.9782 32.4373 54.2586
lradius 10.6938
lwrist -51.6346
lhand -13.8364 346.53
lfingers 7.12502
lthumb 12.2868 16.1486
rfemur -3.81374 3.35131 17.2502
rtibia 12.3148
rfoot -14.0855 -8.94005
rtoes -2.15253
lfemur -37.2485 0.881083 -12.821
ltibia 45.8996
lfoot 728.866 2.85261
ltoes -58.2138
1579
root 8.38129 16.514 -8.64793 3.07438 1.35877 4.88377
lowerback -0.266109 1.16203 -4.69737
upperback 4.44808 1.78555 -2.38381
thorax 4.68811 0.756686 0.237432
lowerneck -5.84986 3.22373 -1.49932
upperneck 36.9832 4.90599 0.9277
head 13.35 2.09742 1.25621
rclavicle -1.62506e-014 3.73715e-014
rhumerus -39.9432 -8.19252 -78.0675
rradius 50.9175
rwrist 2.14148
rhand -9.5679 -46.3451
rfingers 7.12502
rthumb 16.3997 -435.672
lclavicle -1.62506e-014 3.73715e-014
lhumerus -42.1731 28.8138 57.9193
lradius 12.1938
lwrist -46.6871
lhand -14.3626 346.673
lfingers 7.12502
lthumb 11.7795 16.3221
rfemur -4.10513 2.99952 16.42
rtibia 12.0118
rfoot -14.0959 -8.31002
rtoes -3.72843
lfemur -33.7139 0.332129 -13.9342
ltibia 42.4205
lfoot 727.775 2.03644
ltoes -58.3066
1580
root 8.44857 16.5039 -8.58815 3.923 0.967587 4.78937
lowerback -1.04867 1.00797 -4.98319
upperback 3.9261 1.61627 -2.36203
thorax 4.58593 0.668319 0.424603
lowerneck -6.47967 3.41485 -1.51187
upperneck 37.7348 5.1407 1.16918
head 13.8172 2.2049 1.41902
rclavicle 1.03865e-014 -1.98785e-014
rhumerus -40.5472 -8.6584 -78.2862
rradius 49.7907
rwrist 1.35646
rhand -12.2928 -42.518
rfingers 7.12502
rthumb 13.7749 -432.042
lclavicle 1.03865e-014 -1.98785e-014
lhumerus -40.9589 25.8191 60.8799
lradius 13.2673
lwrist -42.7655
lhand -14.7075 346.905
lfingers 7.12502
lthumb 11.4468 16.5727
rfemur -4.88756 3.30523 16.1887
rtibia 11.9838
rfoot -13.9644 -8.23015
rtoes -5.21495
lfemur -30.6232 -0.0531831 -14.4381
ltibia 38.9735
lfoot 727.198 1.56748
ltoes -58.2141
1581
root 8.51219 16.4984 -8.55159 4.74685 0.529911 3.98478
lowerback -1.36338 0.919497 -4.62169
upperback 3.2805 1.46687 -2.14483
thorax 4.09628 0.619083 0.443628
lowerneck -6.52489 3.33234 -1.34371
upperneck 38.1298 4.97416 1.19756
head 14.0188 2.14669 1.38997
rclavicle -6.55989e-015 2.38542e-014
rhumerus -41.3068 -8.8606 -78.6416
rradius 49.4813
rwrist 0.957814
rhand -12.507 -43.9381
rfingers 7.12502
rthumb 13.5684 -433.476
lclavicle -6.55989e-015 2.38542e-014
lhumerus -39.8655 23.2872 63.2457
lradius 14.1748
lwrist -39.6582
lhand -14.9967 347.059
lfingers 7.12502
lthumb 11.1679 16.7423
rfemur -5.95972 4.01982 16.8334
rtibia 12.2839
rfoot -14.0468 -8.49993
rtoes -7.35769
lfemur -27.7249 -0.298458 -14.0159
ltibia 35.3797
lfoot 725.972 0.330209
ltoes -57.8794
1582
root 8.60579 16.4784 -8.45406 5.46054 0.463602 3.4544
lowerback -2.65318 0.737203 -4.23682
upperback 3.1255 1.27611 -1.96816
thorax 4.6779 0.52459 0.421301
lowerneck -6.42373 3.38584 -1.21527
upperneck 38.1184 5.11615 0.917093
head 14.0052 2.18828 1.26883
rclavicle 5.46658e-015 -3.97569e-016
rhumerus -41.6807 -9.3692 -78.6685
rradius 49.0102
rwrist 1.2046
rhand -11.6088 -43.6604
rfingers 7.12502
rthumb 14.4339 -433.138
lclavicle 5.46658e-015 -3.97569e-016
lhumerus -38.6991 21.2051 65.5647
lradius 15.2984
lwrist -37.1209
lhand -15.4439 346.684
lfingers 7.12502
lthumb 10.7366 16.39
rfemur -6.14575 3.35389 16.963
rtibia 11.9312
rfoot -14.1664 -7.74199
rtoes -6.65913
lfemur -24.0313 -1.23759 -14.2573
ltibia 30.7992
lfoot 722.111 0.449168
ltoes -58.7118
1583
root 8.69209 16.4552 -8.38819 5.95071 0.294798 3.47328
lowerback -3.28476 0.59405 -4.65943
upperback 3.01771 1.13682 -1.84767
thorax 4.92217 0.434836 0.780364
lowerneck -6.6131 3.43669 -1.30354
upperneck 38.2071 5.2084 0.919421
head 14.0849 2.20978 1.30422
rclavicle -4.67144e-015 -1.43125e-014
rhumerus -41.8672 -9.81477 -78.7004
rradius 48.5311
rwrist 0.774248
rhand -11.715 -44.156
rfingers 7.12502
rthumb 14.3316 -433.641
lclavicle -4.67144e-015 -1.43125e-014
lhumerus -37.4063 19.2014 67.8515
lradius 16.3776
lwrist -34.8482
lhand -16.1769 346.214
lfingers 7.12502
lthumb 10.0295 15.9552
rfemur -6.43764 3.22214 16.4908
rtibia 11.8889
rfoot -14.2025 -7.38182
rtoes -7.72387
lfemur -20.5067 -1.95735 -14.8943
ltibia 25.2311
lfoot 717.437 0.690931
ltoes -57.8559
1584
root 8.78093 16.4336 -8.32004 6.42012 0.199624 3.52673
lowerback -3.87407 0.405701 -5.15062
upperback 2.92497 0.945521 -1.75175
thorax 5.16411 0.316611 1.14556
lowerneck -6.62504 3.49476 -1.2812
upperneck 38.3159 5.30465 0.862554
head 14.1411 2.2414 1.2921
rclavicle -1.12313e-014 -1.98785e-014
rhumerus -41.8331 -10.3764 -78.7968
rradius 47.9635
rwrist 0.327283
rhand -10.8343 -46.5661
rfingers 7.12502
rthumb 15.1801 -435.989
lclavicle -1.12313e-014 -1.98785e-014
lhumerus -36.1023 17.0306 70.0428
lradius 17.5401
lwrist -32.473
lhand -16.9716 346.254
lfingers 7.12502
lthumb 9.26273 16.0306
rfemur -6.65384 3.12452 16.0222
rtibia 11.8699
rfoot -14.2973 -6.98896
rtoes -6.6354
lfemur -17.1538 -2.64951 -15.5338
ltibia 18.8324
lfoot 716.509 1.11918
ltoes -55.96
1585
root 8.85335 16.4232 -8.29161 6.86998 0.201483 3.25785
lowerback -3.81016 0.231968 -5.57231
upperback 2.74356 0.716323 -1.53992
thorax 4.94522 0.192056 1.58184
lowerneck -6.7474 3.5681 -1.09936
upperneck 38.4893 5.3929 0.810327
head 14.2585 2.29009 1.25768
rclavicle -5.71506e-015 -3.18055e-014
rhumerus -41.7274 -11.0347 -78.8514
rradius 47.2949
rwrist 0.435192
rhand -9.63793 -47.7344
rfingers 7.12502
rthumb 16.3323 -437.067
lclavicle -5.71506e-015 -3.18055e-014
lhumerus -34.8194 14.8171 72.0492
lradius 18.9631
lwrist -30.4522
lhand -17.4901 346.52
lfingers 7.12502
lthumb 8.76238 16.3181
rfemur -7.22938 3.59964 16.0448
rtibia 12.2362
rfoot -14.5267 -7.27129
rtoes -4.97038
lfemur -14.6522 -3.00146 -15.5426
ltibia 13.5043
lfoot 716.062 1.60633
ltoes -53.9391
1586
root 8.92745 16.4133 -8.26078 7.35907 0.442114 2.94749
lowerback -3.86598 0.0393735 -5.91915
upperback 2.66444 0.470436 -1.31166
thorax 4.9088 0.0565173 1.99348
lowerneck -6.63396 3.54476 -0.934704
upperneck 38.5027 5.36256 0.669966
head 14.2519 2.28015 1.16397
rclavicle 7.15625e-015 -2.06736e-014
rhumerus -41.7492 -11.5032 -78.8671
rradius 46.9451
rwrist 0.94817
rhand -9.61082 -46.6107
rfingers 7.12502
rthumb 16.3584 -435.941
lclavicle 7.15625e-015 -2.06736e-014
lhumerus -33.4449 12.6525 73.844
lradius 20.5664
lwrist -28.988
lhand -17.6456 346.248
lfingers 7.12502
lthumb 8.61238 16.0522
rfemur -7.65235 3.56605 16.058
rtibia 12.344
rfoot -14.6781 -7.43612
rtoes -5.1354
lfemur -13.1902 -4.05231 -15.4857
ltibia 10.0898
lfoot 715.332 2.12566
ltoes -52.5009
1587
root 9.0085 16.4009 -8.2231 7.98272 1.06524 2.44014
lowerback -4.14044 -0.226285 -5.94488
upperback 2.55913 0.120429 -1.01796
thorax 4.98202 -0.123 2.28567
lowerneck -6.61648 3.45504 -1.32043
upperneck 38.4233 5.07349 1.29082
head 14.1728 2.17998 1.44232
rclavicle -3.8266e-015 -6.36111e-015
rhumerus -41.8116 -11.692 -78.9481
rradius 46.4534
rwrist 0.70441
rhand -10.698 -44.8858
rfingers 7.12502
rthumb 15.3114 -434.299
lclavicle -3.8266e-015 -6.36111e-015
lhumerus -32.235 10.5456 75.3996
lradius 22.3097
lwrist -27.6071
lhand -17.7598 345.789
lfingers 7.12502
lthumb 8.50217 15.5977
rfemur -7.8995 3.03783 16.2643
rtibia 12.0294
rfoot -14.6581 -7.49048
rtoes -6.75258
lfemur -12.2187 -5.48158 -15.2162
ltibia 7.30007
lfoot 714.783 2.57299
ltoes -51.6178
